<?xml version="1.0" encoding="UTF-8" standalone="no"?>
<!-- Generator: Adobe Illustrator 22.0.1, SVG Export Plug-In . SVG Version: 6.00 Build 0)  -->

<svg
   version="1.1"
   id="Layer_1"
   x="0px"
   y="0px"
   viewBox="0 0 30 30"
   style="enable-background:new 0 0 30 30;"
   xml:space="preserve"
   sodipodi:docname="01d.svg"
   inkscape:version="1.3 (0e150ed, 2023-07-21)"
   xmlns:inkscape="http://www.inkscape.org/namespaces/inkscape"
   xmlns:sodipodi="http://sodipodi.sourceforge.net/DTD/sodipodi-0.dtd"
   xmlns="http://www.w3.org/2000/svg"
   xmlns:svg="http://www.w3.org/2000/svg"><defs
   id="defs1" /><sodipodi:namedview
   id="namedview1"
   pagecolor="#ffffff"
   bordercolor="#000000"
   borderopacity="0.25"
   inkscape:showpageshadow="2"
   inkscape:pageopacity="0.0"
   inkscape:pagecheckerboard="0"
   inkscape:deskcolor="#d1d1d1"
   showgrid="false"
   inkscape:zoom="26.5"
   inkscape:cx="14.981132"
   inkscape:cy="15"
   inkscape:window-width="1920"
   inkscape:window-height="1008"
   inkscape:window-x="0"
   inkscape:window-y="40"
   inkscape:window-maximized="1"
   inkscape:current-layer="Layer_1" />&#10;<path
   d="m 21.92,14.62 c 0,-0.24 0.08,-0.44 0.24,-0.62 0.16,-0.16 0.35,-0.24 0.57,-0.24 h 2.02 c 0.23,0 0.43,0.09 0.6,0.26 0.17,0.17 0.26,0.37 0.26,0.6 0,0.23 -0.09,0.43 -0.26,0.6 -0.17,0.17 -0.37,0.25 -0.6,0.25 h -2.02 c -0.23,0 -0.43,-0.08 -0.58,-0.25 -0.15,-0.17 -0.23,-0.36 -0.23,-0.6 z"
   id="path9"
   style="fill:#e5e9f0;fill-opacity:1" /><path
   d="m 19.66,9.16 c 0,-0.25 0.08,-0.45 0.23,-0.59 L 21.31,7.1 c 0.17,-0.16 0.37,-0.24 0.59,-0.24 0.24,0 0.44,0.08 0.6,0.25 0.17,0.17 0.25,0.37 0.25,0.6 0,0.25 -0.08,0.46 -0.24,0.62 L 21.05,9.76 C 20.87,9.92 20.67,10 20.45,10 20.22,10 20.04,9.92 19.89,9.76 19.74,9.6 19.66,9.4 19.66,9.16 Z"
   id="path8"
   style="fill:#e5e9f0;fill-opacity:1" /><path
   d="m 19.66,20.08 c 0,-0.23 0.08,-0.42 0.23,-0.56 0.15,-0.16 0.34,-0.23 0.56,-0.23 0.24,0 0.44,0.08 0.6,0.23 l 1.46,1.43 c 0.16,0.17 0.24,0.38 0.24,0.61 0,0.23 -0.08,0.43 -0.24,0.59 -0.4,0.31 -0.8,0.31 -1.2,0 l -1.42,-1.42 c -0.15,-0.18 -0.23,-0.39 -0.23,-0.65 z"
   id="path7"
   style="fill:#e5e9f0;fill-opacity:1" /><path
   d="M 14.14,6.9 V 4.86 c 0,-0.23 0.08,-0.43 0.25,-0.6 C 14.56,4.09 14.76,4 15,4 c 0.24,0 0.43,0.08 0.6,0.25 0.17,0.17 0.25,0.37 0.25,0.6 V 6.9 c 0,0.23 -0.08,0.42 -0.25,0.58 C 15.43,7.64 15.23,7.71 15,7.71 14.77,7.71 14.56,7.63 14.4,7.48 14.24,7.33 14.14,7.13 14.14,6.9 Z"
   id="path6"
   style="fill:#e5e9f0;fill-opacity:1" /><path
   d="m 14.14,22.4 c 0,-0.24 0.08,-0.44 0.25,-0.6 0.17,-0.16 0.37,-0.24 0.6,-0.24 0.24,0 0.45,0.08 0.61,0.24 0.16,0.16 0.24,0.36 0.24,0.6 v 1.99 c 0,0.24 -0.08,0.45 -0.25,0.62 -0.17,0.17 -0.37,0.25 -0.6,0.25 -0.23,0 -0.44,-0.08 -0.6,-0.25 -0.17,-0.17 -0.25,-0.38 -0.25,-0.62 z"
   id="path5"
   style="fill:#e5e9f0;fill-opacity:1" /><path
   d="m 9.78,14.62 c 0,-0.93 0.23,-1.8 0.7,-2.6 0.47,-0.8 1.1,-1.44 1.91,-1.91 0.81,-0.47 1.67,-0.7 2.6,-0.7 0.7,0 1.37,0.14 2.02,0.42 0.64,0.28 1.2,0.65 1.66,1.12 0.47,0.47 0.84,1.02 1.11,1.66 0.27,0.64 0.41,1.32 0.41,2.02 0,0.94 -0.23,1.81 -0.7,2.61 -0.47,0.8 -1.1,1.43 -1.9,1.9 -0.8,0.47 -1.67,0.7 -2.61,0.7 -0.94,0 -1.81,-0.23 -2.61,-0.7 -0.8,-0.47 -1.43,-1.1 -1.9,-1.9 -0.45,-0.81 -0.69,-1.68 -0.69,-2.62 z m 1.7,0 c 0,0.98 0.34,1.81 1.03,2.5 0.68,0.69 1.51,1.04 2.49,1.04 0.98,0 1.81,-0.35 2.5,-1.04 0.69,-0.69 1.04,-1.52 1.04,-2.5 0,-0.96 -0.35,-1.78 -1.04,-2.47 -0.69,-0.68 -1.52,-1.02 -2.5,-1.02 -0.97,0 -1.8,0.34 -2.48,1.02 -0.7,0.69 -1.04,1.51 -1.04,2.47 z"
   id="path4"
   style="fill:#e5e9f0;fill-opacity:1" /><path
   d="M 7.23,7.71 C 7.23,7.48 7.31,7.28 7.46,7.1 7.66,6.93 7.87,6.85 8.1,6.85 c 0.22,0 0.42,0.08 0.59,0.24 l 1.43,1.47 c 0.16,0.15 0.24,0.35 0.24,0.59 0,0.24 -0.08,0.44 -0.24,0.6 C 9.96,9.91 9.76,9.99 9.52,9.99 9.28,9.99 9.08,9.91 8.93,9.75 L 7.47,8.32 C 7.31,8.16 7.23,7.95 7.23,7.71 Z"
   id="path3"
   style="fill:#e5e9f0;fill-opacity:1" /><path
   d="m 7.23,21.55 c 0,-0.23 0.08,-0.43 0.23,-0.61 l 1.47,-1.43 c 0.15,-0.16 0.35,-0.23 0.59,-0.23 0.24,0 0.44,0.08 0.6,0.23 0.16,0.15 0.24,0.34 0.24,0.57 0,0.24 -0.08,0.46 -0.24,0.64 L 8.7,22.14 c -0.41,0.32 -0.82,0.32 -1.23,0 C 7.31,21.98 7.23,21.78 7.23,21.55 Z"
   id="path2"
   style="fill:#e5e9f0;fill-opacity:1" /><path
   d="M 4.37,14.62 C 4.37,14.38 4.45,14.17 4.62,14 4.79,13.84 5,13.76 5.22,13.76 h 2.04 c 0.23,0 0.42,0.08 0.58,0.25 0.15,0.17 0.23,0.37 0.23,0.61 0,0.24 -0.07,0.44 -0.22,0.61 C 7.7,15.4 7.5,15.48 7.27,15.48 H 5.23 C 5,15.48 4.8,15.4 4.63,15.23 4.46,15.06 4.37,14.86 4.37,14.62 Z"
   id="path1"
   style="fill:#e5e9f0;fill-opacity:1" />&#10;</svg>
