<?xml version="1.0" encoding="UTF-8" standalone="no"?>
<!-- Created with Inkscape (http://www.inkscape.org/) -->

<svg
   version="1.1"
   id="svg1"
   width="188.97479"
   height="80.472664"
   viewBox="0 0 188.97479 80.472662"
   sodipodi:docname="OpenWeather Negative Logo RGB.ai"
   xmlns:inkscape="http://www.inkscape.org/namespaces/inkscape"
   xmlns:sodipodi="http://sodipodi.sourceforge.net/DTD/sodipodi-0.dtd"
   xmlns="http://www.w3.org/2000/svg"
   xmlns:svg="http://www.w3.org/2000/svg">
  <defs
     id="defs1">
    <clipPath
       clipPathUnits="userSpaceOnUse"
       id="clipPath2">
      <path
         d="M 0,112.507 H 198.425 V 0 H 0 Z"
         transform="translate(-31.066301,-37.897901)"
         id="path2" />
    </clipPath>
    <clipPath
       clipPathUnits="userSpaceOnUse"
       id="clipPath4">
      <path
         d="M 0,112.507 H 198.425 V 0 H 0 Z"
         transform="translate(-52.187401,-37.396901)"
         id="path4" />
    </clipPath>
    <clipPath
       clipPathUnits="userSpaceOnUse"
       id="clipPath6">
      <path
         d="M 0,112.507 H 198.425 V 0 H 0 Z"
         transform="translate(-64.478501,-38.512101)"
         id="path6" />
    </clipPath>
    <clipPath
       clipPathUnits="userSpaceOnUse"
       id="clipPath8">
      <path
         d="M 0,112.507 H 198.425 V 0 H 0 Z"
         transform="translate(-71.991102,-43.040501)"
         id="path8" />
    </clipPath>
    <clipPath
       clipPathUnits="userSpaceOnUse"
       id="clipPath10">
      <path
         d="M 0,112.507 H 198.425 V 0 H 0 Z"
         transform="translate(-84.646405,-47.683001)"
         id="path10" />
    </clipPath>
    <clipPath
       clipPathUnits="userSpaceOnUse"
       id="clipPath12">
      <path
         d="M 0,112.507 H 198.425 V 0 H 0 Z"
         transform="translate(-110.2968,-38.512101)"
         id="path12" />
    </clipPath>
    <clipPath
       clipPathUnits="userSpaceOnUse"
       id="clipPath14">
      <path
         d="M 0,112.507 H 198.425 V 0 H 0 Z"
         transform="translate(-119.2431,-33.802203)"
         id="path14" />
    </clipPath>
    <clipPath
       clipPathUnits="userSpaceOnUse"
       id="clipPath16">
      <path
         d="M 0,112.507 H 198.425 V 0 H 0 Z"
         transform="translate(-129.09951,-43.040501)"
         id="path16" />
    </clipPath>
    <clipPath
       clipPathUnits="userSpaceOnUse"
       id="clipPath18">
      <path
         d="M 0,112.507 H 198.425 V 0 H 0 Z"
         transform="translate(-139.8427,-47.683001)"
         id="path18" />
    </clipPath>
    <clipPath
       clipPathUnits="userSpaceOnUse"
       id="clipPath20">
      <path
         d="M 0,112.507 H 198.425 V 0 H 0 Z"
         transform="translate(-158.0497,-38.512101)"
         id="path20" />
    </clipPath>
    <clipPath
       clipPathUnits="userSpaceOnUse"
       id="clipPath22">
      <path
         d="M 0,112.507 H 198.425 V 0 H 0 Z"
         transform="translate(-165.5634,-41.402801)"
         id="path22" />
    </clipPath>
    <clipPath
       clipPathUnits="userSpaceOnUse"
       id="clipPath24">
      <path
         d="M 0,112.507 H 198.425 V 0 H 0 Z"
         transform="translate(-81.766502,-64.649402)"
         id="path24" />
    </clipPath>
    <clipPath
       clipPathUnits="userSpaceOnUse"
       id="clipPath26">
      <path
         d="M 0,112.507 H 198.425 V 0 H 0 Z"
         transform="translate(-84.0976,-58.458401)"
         id="path26" />
    </clipPath>
    <clipPath
       clipPathUnits="userSpaceOnUse"
       id="clipPath28">
      <path
         d="M 0,112.507 H 198.425 V 0 H 0 Z"
         transform="translate(-75.275304,-58.458401)"
         id="path28" />
    </clipPath>
  </defs>
  <sodipodi:namedview
     id="namedview1"
     pagecolor="#ffffff"
     bordercolor="#000000"
     borderopacity="0.25"
     inkscape:showpageshadow="2"
     inkscape:pageopacity="0.0"
     inkscape:pagecheckerboard="0"
     inkscape:deskcolor="#d1d1d1" />
  <g
     id="layer-MC0"
     inkscape:groupmode="layer"
     inkscape:label="Layer 1"
     transform="translate(-37.417732,-33.267468)">
    <path
       id="path1"
       d="M 0,0 C 0,-2.298 1.139,-3.777 3.551,-3.777 6.031,-3.777 7.1,-2.208 7.1,0 V 3.642 C 7.1,5.894 5.78,7.419 3.551,7.419 1.252,7.419 0,5.803 0,3.642 Z m 3.551,10.104 c 4.073,0 6.553,-2.526 6.553,-6.599 V 0.137 c 0,-4.188 -2.48,-6.6 -6.553,-6.6 -4.074,0 -6.554,2.412 -6.554,6.6 v 3.368 c 0,4.073 2.48,6.599 6.554,6.599"
       style="fill:#f1f1f1;fill-opacity:1;fill-rule:nonzero;stroke:none"
       transform="matrix(1.3333333,0,0,-1.3333333,41.421733,99.4788)"
       clip-path="url(#clipPath2)" />
    <path
       id="path3"
       d="M 0,0 C 0,2.185 -1.365,3.414 -3.095,3.414 -4.87,3.414 -6.19,2.14 -6.19,0 c 0,-2.139 1.32,-3.413 3.095,-3.413 C -1.365,-3.413 0,-2.185 0,0 m -9.058,5.644 h 2.823 V 4.051 h 0.318 c 0.592,0.956 1.594,1.912 3.596,1.912 2.822,0 5.188,-2.504 5.188,-5.963 0,-3.459 -2.366,-5.962 -5.188,-5.962 -2.002,0 -3.004,0.956 -3.596,1.911 H -6.19 v -6.144 h -2.868 z"
       style="fill:#f1f1f1;fill-opacity:1;fill-rule:nonzero;stroke:none"
       transform="matrix(1.3333333,0,0,-1.3333333,69.5832,100.1468)"
       clip-path="url(#clipPath4)" />
    <path
       id="path5"
       d="M 0,0 C -0.158,1.479 -1.114,2.39 -2.593,2.39 -4.209,2.39 -5.097,1.435 -5.278,0 Z m -2.57,4.848 c 3.276,0 5.483,-2.299 5.483,-5.69 v -1.069 h -8.214 c 0.114,-1.548 1.183,-2.708 2.822,-2.708 1.592,0 2.434,0.888 2.822,1.683 l 2.343,-1.365 c -0.774,-1.183 -2.093,-2.776 -5.121,-2.776 -3.368,0 -5.802,2.549 -5.802,6.053 0,3.414 2.343,5.872 5.667,5.872"
       style="fill:#f1f1f1;fill-opacity:1;fill-rule:nonzero;stroke:none"
       transform="matrix(1.3333333,0,0,-1.3333333,85.971333,98.659867)"
       clip-path="url(#clipPath6)" />
    <path
       id="path7"
       d="m 0,0 v -1.82 h 0.317 c 0.456,1.047 1.502,2.003 3.574,2.003 2.503,0 4.392,-1.798 4.392,-4.734 v -6.736 H 5.415 v 6.463 c 0,1.57 -0.91,2.504 -2.548,2.504 -1.844,0 -2.822,-1.139 -2.822,-3.141 v -5.826 H -2.822 V 0 Z"
       style="fill:#f1f1f1;fill-opacity:1;fill-rule:nonzero;stroke:none"
       transform="matrix(1.3333333,0,0,-1.3333333,95.988133,92.622)"
       clip-path="url(#clipPath8)" />
    <path
       id="path9"
       d="M 0,0 1.912,-13.017 H 2.185 L 4.62,0 h 4.689 l 2.434,-13.017 h 0.273 L 13.928,0 h 3.004 L 14.429,-15.93 H 9.536 L 7.101,-2.913 H 6.827 L 4.392,-15.93 H -0.501 L -3.003,0 Z"
       style="fill:#f1f1f1;fill-opacity:1;fill-rule:nonzero;stroke:none"
       transform="matrix(1.3333333,0,0,-1.3333333,112.86187,86.432)"
       clip-path="url(#clipPath10)" />
    <path
       id="path11"
       d="M 0,0 C -0.158,1.479 -1.114,2.39 -2.594,2.39 -4.21,2.39 -5.098,1.435 -5.278,0 Z m -2.571,4.848 c 3.276,0 5.484,-2.299 5.484,-5.69 v -1.069 h -8.215 c 0.114,-1.548 1.183,-2.708 2.822,-2.708 1.593,0 2.435,0.888 2.822,1.683 l 2.344,-1.365 c -0.774,-1.183 -2.094,-2.776 -5.121,-2.776 -3.368,0 -5.803,2.549 -5.803,6.053 0,3.414 2.344,5.872 5.667,5.872"
       style="fill:#f1f1f1;fill-opacity:1;fill-rule:nonzero;stroke:none"
       transform="matrix(1.3333333,0,0,-1.3333333,147.0624,98.659867)"
       clip-path="url(#clipPath12)" />
    <path
       id="path13"
       d="m 0,0 c 2.003,0 3.118,1.183 3.118,2.73 v 0.274 l -3.46,-0.41 C -1.411,2.457 -1.934,1.979 -1.934,1.319 -1.934,0.546 -1.273,0 0,0 m 0.864,9.558 c 3.005,0 5.12,-1.753 5.12,-4.484 V -2.049 H 3.163 v 1.593 H 2.846 c -0.366,-0.75 -1.161,-1.911 -3.551,-1.911 -2.55,0 -4.233,1.365 -4.233,3.527 0,1.798 1.57,3.05 3.732,3.277 l 4.324,0.478 v 0.364 c 0,1.047 -0.774,1.957 -2.367,1.957 -1.593,0 -2.503,-0.91 -3.095,-2.185 l -2.32,1.411 c 0.887,1.298 2.525,3.096 5.528,3.096"
       style="fill:#f1f1f1;fill-opacity:1;fill-rule:nonzero;stroke:none"
       transform="matrix(1.3333333,0,0,-1.3333333,158.9908,104.93973)"
       clip-path="url(#clipPath14)" />
    <path
       id="path15"
       d="M 0,0 V 3.505 H 2.867 V 0 H 5.963 V -2.412 H 2.867 v -5.779 c 0,-0.455 0.229,-0.684 0.638,-0.684 h 1.82 v -2.412 H 2.23 c -1.274,0 -2.23,0.911 -2.23,2.184 v 6.691 H -2.867 V 0 Z"
       style="fill:#f1f1f1;fill-opacity:1;fill-rule:nonzero;stroke:none"
       transform="matrix(1.3333333,0,0,-1.3333333,172.13267,92.622)"
       clip-path="url(#clipPath16)" />
    <path
       id="path17"
       d="m 0,0 v -6.463 h 0.272 c 0.457,1.047 1.502,2.003 3.574,2.003 2.503,0 4.392,-1.798 4.392,-4.733 V -15.93 H 5.37 v 6.463 c 0,1.571 -0.91,2.504 -2.548,2.504 C 0.979,-6.963 0,-8.102 0,-10.104 V -15.93 H -2.867 V 0 Z"
       style="fill:#f1f1f1;fill-opacity:1;fill-rule:nonzero;stroke:none"
       transform="matrix(1.3333333,0,0,-1.3333333,186.45693,86.432)"
       clip-path="url(#clipPath18)" />
    <path
       id="path19"
       d="M 0,0 C -0.158,1.479 -1.114,2.39 -2.593,2.39 -4.209,2.39 -5.097,1.435 -5.278,0 Z m -2.57,4.848 c 3.276,0 5.483,-2.299 5.483,-5.69 v -1.069 h -8.214 c 0.114,-1.548 1.182,-2.708 2.822,-2.708 1.592,0 2.434,0.888 2.822,1.683 l 2.343,-1.365 c -0.774,-1.183 -2.093,-2.776 -5.121,-2.776 -3.368,0 -5.802,2.549 -5.802,6.053 0,3.414 2.343,5.872 5.667,5.872"
       style="fill:#f1f1f1;fill-opacity:1;fill-rule:nonzero;stroke:none"
       transform="matrix(1.3333333,0,0,-1.3333333,210.73293,98.659867)"
       clip-path="url(#clipPath20)" />
    <path
       id="path21"
       d="M 0,0 H 0.317 C 0.75,1.251 1.706,1.684 3.14,1.684 H 4.231 V -0.819 H 2.548 c -1.456,0 -2.503,-0.775 -2.503,-2.368 V -9.649 H -2.822 V 1.638 H 0 Z"
       style="fill:#f1f1f1;fill-opacity:1;fill-rule:nonzero;stroke:none"
       transform="matrix(1.3333333,0,0,-1.3333333,220.7512,94.8056)"
       clip-path="url(#clipPath22)" />
    <path
       id="path23"
       d="m 0,0 v -0.114 c 0,-0.823 -0.662,-1.495 -1.486,-1.495 h -15.625 c -0.824,0 -1.487,-0.663 -1.487,-1.486 v -0.114 c 0,-0.824 0.663,-1.486 1.487,-1.486 h 0.615 c 0.823,0 1.496,-0.672 1.496,-1.496 v -0.113 c 0,-0.824 -0.673,-1.487 -1.496,-1.487 h -1.856 c -0.823,0 -1.495,-0.671 -1.495,-1.495 V -9.4 c 0,-0.823 0.672,-1.486 1.495,-1.486 h 10.167 c 0.824,0 1.486,-0.672 1.486,-1.495 v -0.114 c 0,-0.823 -0.662,-1.486 -1.486,-1.486 h -26.949 c -0.824,0 -1.496,0.663 -1.496,1.486 v 0.114 c 0,0.823 0.672,1.495 1.496,1.495 h 6.455 c 0.825,0 1.496,0.663 1.496,1.486 v 0.114 c 0,0.824 -0.671,1.495 -1.496,1.495 h -9.597 c -0.833,0 -1.496,0.663 -1.496,1.487 v 0.113 c 0,0.199 0.038,0.398 0.113,0.568 0.218,0.549 0.758,0.928 1.383,0.928 h 0.501 c 0.824,0 1.496,0.662 1.496,1.486 v 0.114 c 0,0.823 -0.672,1.486 -1.496,1.486 h -5.784 c -0.823,0 -1.496,0.672 -1.496,1.495 V 0 c 0,0.823 0.673,1.486 1.496,1.486 h 1.136 c -0.151,0.966 -0.236,1.959 -0.236,2.963 0,10.195 8.272,18.458 18.458,18.458 10.194,0 18.458,-8.263 18.458,-18.458 0,-1.004 -0.085,-1.997 -0.236,-2.963 h 4.493 C -0.662,1.486 0,0.823 0,0"
       style="fill:#ea6d4a;fill-opacity:1;fill-rule:nonzero;stroke:none"
       transform="matrix(1.3333333,0,0,-1.3333333,109.022,63.810133)"
       clip-path="url(#clipPath24)" />
    <path
       id="path25"
       d="M 0,0 V -0.113 C 0,-0.937 -0.672,-1.6 -1.496,-1.6 h -3.322 c -0.824,0 -1.487,0.663 -1.487,1.487 V 0 c 0,0.824 0.663,1.496 1.487,1.496 h 3.322 C -0.672,1.496 0,0.824 0,0"
       style="fill:#e9633e;fill-opacity:1;fill-rule:nonzero;stroke:none"
       transform="matrix(1.3333333,0,0,-1.3333333,112.13013,72.0648)"
       clip-path="url(#clipPath26)" />
    <path
       id="path27"
       d="M 0,0 V -0.113 C 0,-0.937 -0.672,-1.6 -1.496,-1.6 h -3.322 c -0.824,0 -1.487,0.663 -1.487,1.487 V 0 c 0,0.824 0.663,1.496 1.487,1.496 h 3.322 C -0.672,1.496 0,0.824 0,0"
       style="fill:#e9633e;fill-opacity:1;fill-rule:nonzero;stroke:none"
       transform="matrix(1.3333333,0,0,-1.3333333,100.36707,72.0648)"
       clip-path="url(#clipPath28)" />
  </g>
</svg>
